<svg viewBox="0 0 400 387" fill="none" xmlns="http://www.w3.org/2000/svg">
<ellipse cx="200" cy="193.5" rx="200" ry="193.5" fill="white"/>
<path d="M122.667 30.4C112.4 36.5334 101.467 45.4667 100.533 48.4C99.8667 50.4 100.533 51.8667 102.8 53.7334C105.733 56 107.6 56.2667 120.667 55.6C136 54.9334 143.333 53.2 142.4 50.4C141.867 48.8 139.2 47.8667 130.533 46.1334C124.933 44.9334 124.8 41.6 130 33.7334C134.533 26.9334 134.533 26.6667 131.733 26.6667C130 26.6667 126 28.4 122.667 30.4Z" fill="#0032A1"/>
<path d="M266.667 27.7334C266.667 28.4001 268.533 31.4667 270.8 34.5334C276.533 42.5334 275.733 45.6001 267.333 47.3334C260.267 48.8001 257.333 50.1334 257.333 52.0001C257.333 54.6667 279.067 57.7334 289.733 56.5334C306.667 54.6667 303.733 47.7334 279.467 31.8667C272 26.9334 266.667 25.3334 266.667 27.7334Z" fill="#0032A1"/>
<path d="M149.333 32.6667C146 33.7334 141.6 36.1334 139.333 37.8667C133.467 42.6667 136.267 44.6667 148.4 44.4C162.933 44.1334 181.067 36.5334 176.933 32.5334C175.067 30.5334 155.333 30.6667 149.333 32.6667Z" fill="#0032A1"/>
<path d="M229.733 31.8667C222.267 33.2001 221.333 34.4001 225.2 37.4667C230.4 41.7334 245.2 45.4667 254.8 45.0667C262.267 44.6667 263.333 44.4001 263.333 42.0001C263.333 40.1334 261.2 38.2667 256 35.7334C248 31.7334 238.4 30.4001 229.733 31.8667Z" fill="#0032A1"/>
<path d="M86.9334 47.6001C78.2667 56.6667 67.8667 73.3334 68.2667 77.2001C68.6667 80.5334 68.9334 80.6667 78.2667 80.5334C86.9334 80.5334 89.0667 79.8667 99.6 74.5334C106.667 71.0667 111.467 67.7334 111.733 66.2667C112.133 64.2667 110.933 64.0001 102 64.0001C90 64.0001 89.6 63.4667 92.5334 52.5334C95.2 42.1334 93.6 40.6667 86.9334 47.6001Z" fill="#0032A1"/>
<path d="M306.667 45.6001C306.667 46.5334 307.467 50.4001 308.533 54.1334C311.2 64.0001 309.733 65.8667 300.533 64.6667C293.067 63.7334 288 64.6667 288 66.8001C288 70.8001 315.867 82.6667 325.333 82.6667C329.333 82.6667 333.333 79.7334 333.333 76.6667C333.333 74.5334 321.733 57.2001 315.2 49.4667C310.533 44.1334 306.667 42.4001 306.667 45.6001Z" fill="#0032A1"/>
<path d="M180 54.6667C122.667 62.6667 76.1333 103.467 61.8666 158C58.8 169.333 58.2666 174.267 58.1333 190.667C58 224.8 67.0666 251.733 87.8666 277.6C117.067 314.133 167.467 334.933 213.333 329.467C274.267 322.133 320.4 283.2 336.267 225.6C338.667 216.933 339.2 211.6 339.2 192C339.333 171.467 338.933 167.333 336.133 157.333C319.467 97.4667 266.8 56.2667 204 54C195.6 53.7334 184.8 54 180 54.6667ZM198.667 66.6667C198.667 74.4 198.267 77.3334 196.933 77.3334C190.8 77.3334 171.2 80.5334 163.333 82.9334C131.333 92.2667 102.8 117.333 90.2666 147.333C83.0666 164.667 82 170 82.1333 191.333C82.1333 209.467 82.5333 212.4 85.8666 222.667C90.2666 236 93.0666 241.867 100.4 252.667C119.467 280.8 152.933 300.4 187.333 303.467L197.467 304.4L197.067 315.733L196.667 327.2L188.667 326.933C178 326.533 155.6 320.8 142.533 315.333C113.6 303.2 85.8666 276.267 72.5333 247.467C60.4 220.933 57.4666 191.867 64 162.4C76.5333 105.733 126.533 62.6667 186 57.3334C191.867 56.8 197.067 56.2667 197.733 56.1334C198.267 56.1334 198.667 60.8 198.667 66.6667ZM236.667 84.2667C256.4 90.6667 277.6 105.467 290.667 121.733C299.2 132.4 308.533 151.067 312.133 164.667C316 179.467 316 201.867 312.133 216.667C301.333 257.6 269.6 289.2 228.667 299.867C222.933 301.467 213.733 303.067 208.133 303.467C196.933 304.4 194 303.067 187.867 294.4L184.933 290.4L191.467 291.2C199.2 292.267 205.867 290.533 210.267 286.4C214.667 282.267 214.133 281.333 207.733 281.333C200 281.333 184.267 277.867 180.533 275.333C176 272.4 172 263.733 172 256.933C172 251.067 176.933 239.067 180.8 235.867C181.867 235.067 187.067 234 192.4 233.733C200.8 233.2 202.533 233.467 206.667 236.267C210.933 239.067 216.4 245.867 217.733 249.733C218.533 252.4 233.2 242.533 244.933 231.333C251.067 225.467 256 220 256 219.2C256 216.667 252 215.867 248.933 217.867C244 221.067 231.067 224.133 224.4 223.733C219.2 223.467 217.733 222.667 216.133 219.867C211.467 211.467 220.533 198 238 187.867C248.933 181.467 251.867 180.8 257.067 184L261.333 186.667V199.333C261.333 211.733 261.467 212 264.4 212C273.2 212 293.333 196.667 293.333 190.133C293.333 187.733 293.867 186.933 295.333 187.467C296.933 188.133 297.333 187.2 297.333 183.2C297.333 179.6 296 176.533 292.267 171.467C289.6 167.733 285.6 162.133 283.733 159.067C275.067 145.867 253.2 125.6 232 111.467C219.6 103.067 217.6 100.933 220 97.8667C222 95.6 227.333 95.4667 233.2 97.4667C238.4 99.3334 239.6 98.4 237.6 94C236.267 91.2 232.267 87.7334 223.2 81.7334C220.933 80.2667 221.2 80.1334 224.667 80.8C226.933 81.3334 232.267 82.8 236.667 84.2667ZM255.867 142C262.4 146 270.8 154.667 269.867 156.133C269.467 156.8 265.067 155.2 259.867 152.667C250.933 148.133 246.667 143.2 248.8 139.867C249.733 138.133 250.133 138.267 255.867 142Z" fill="#0032A1"/>
<path d="M54 72.8C50.2667 76.5333 44.4 89.7333 40.8 102C35.4667 120.267 36.2667 124 45.3333 124C51.0667 124 71.0667 111.6 81.6 101.333C91.7333 91.6 89.2 88.2667 75.2 93.0667C60.4 98.2667 58.6667 96.9333 58.6667 80.8C58.6667 70.4 57.8667 69.0667 54 72.8Z" fill="#0032A1"/>
<path d="M342.267 72.9333C341.733 73.3333 341.333 78.5333 341.333 84.2666C341.333 94.1333 341.067 94.8 338 96.2666C335.333 97.4666 333.6 97.2 328.133 94.8C320 91.3333 313.333 91.0666 313.333 94.2666C313.333 97.4666 323.2 106.4 337.2 115.733C350.4 124.533 354.133 126.133 359.333 124.8C364.533 123.467 364.667 118.933 360.133 103.2C353.6 81.0666 346.267 68.8 342.267 72.9333Z" fill="#0032A1"/>
<path d="M21.3333 123.333C17.8666 132.533 21.8666 168.133 26.9333 172.4C32.1333 176.8 37.3333 173.333 46.4 159.333C57.2 142.533 63.2 126.667 58.8 126.667C58 126.667 53.8666 129.6 49.4666 133.333C41.4666 140 36.2666 141.6 33.6 138.267C32.9333 137.467 30.8 133.067 28.9333 128.667C25.2 119.6 23.2 118.267 21.3333 123.333Z" fill="#0032A1"/>
<path d="M372.933 126.8C371.2 130.8 369.333 135.067 368.933 136.4C368.4 137.6 366.533 139.333 364.8 140.267C361.067 141.867 361.2 142 349.333 132.267C337.733 122.933 336.933 127.2 346.667 146.267C360.933 174.133 372 182.133 376.8 167.867C379.467 160 381.6 134.533 380.133 128.133C378.133 118.8 376.533 118.533 372.933 126.8Z" fill="#0032A1"/>
<path d="M42.2667 174.933C40.4 177.333 37.7333 181.867 36.2667 184.8C31.4667 194.4 27.4667 193.867 18 182.667C9.33333 172.267 7.46666 172.267 8.4 182.267C9.2 192 20.5333 220.667 25.4667 225.6C32.1333 232.4 38 227.6 43.2 211.067C52.9333 180 52.4 161.467 42.2667 174.933Z" fill="#0032A1"/>
<path d="M348.933 172.933C346.933 174.933 348.267 186.8 352 201.333C356.8 219.6 359.467 225.333 364.267 227.867C370.4 231.333 373.6 228.267 380.4 212.133C389.733 190.267 392.8 177.467 389.333 175.333C388.133 174.533 376.8 185.733 374.267 190.133C373.733 191.2 371.467 192 369.333 192C366 192 364.933 191.067 362.533 186.267C356.933 175.067 351.733 170 348.933 172.933Z" fill="#0032A1"/>
<path d="M46.9333 223.2C46.1333 224.933 44.8 230.133 43.8667 234.8C41.2 248.933 39.3333 249.6 25.0667 240.667C14 233.867 12 233.333 12 237.867C12 242 21.4667 254.667 34.8 268.667C46.5333 280.8 50.9333 283.067 55.0667 278.8C58.6667 275.333 59.3333 266.8 57.4667 246.933C55.4667 224.4 50.9333 214.4 46.9333 223.2Z" fill="#0032A1"/>
<path d="M344.667 223.867C340.933 231.2 337.6 266.533 340 274.533C343.6 287.067 351.733 283.2 372.133 259.2C390.4 237.733 390.667 229.867 372.8 241.067C368.267 243.867 363.6 246.533 362.4 247.067C358.4 248.533 355.067 243.867 353.333 234.8C351.733 225.733 349.6 220 347.867 220C347.2 220 345.867 221.733 344.667 223.867Z" fill="#0032A1"/>
<path d="M63.6 265.6C62.9333 267.6 64.8 284.8 66 286.667C66.4 287.2 66.2667 288.667 65.8667 289.867C64.2667 294.133 60.8 294.533 48.6667 291.867C42 290.4 36.4 289.733 35.7333 290.4C32.2667 293.867 42 301.467 65.8667 314.133C77.0667 320 80.9333 321.467 84.9333 321.067C89.8667 320.667 90 320.533 90.4 315.2C91.2 304 71.8667 264 65.6 264C64.8 264 64 264.8 63.6 265.6Z" fill="#0032A1"/>
<path d="M328 268C320.533 275.867 306.667 306.667 306.667 315.067C306.667 324.533 312.533 324.933 328.8 316.533C349.733 305.6 362.667 296.4 362.667 292.4C362.667 290.133 360.133 290.133 346.933 292.933C336.933 295.067 335.867 295.067 333.867 293.067C332 291.2 331.867 289.6 333.333 279.6C334.4 271.867 334.533 267.467 333.6 265.867C332.4 263.733 331.867 263.867 328 268Z" fill="#0032A1"/>
<path d="M94.6666 302.667C94.6666 304.133 96.1333 309.2 98 314.133C102.133 324.933 102.133 324.667 98 328.667C95.2 331.6 93.6 332 85.0666 332C67.0666 332 68.5333 336.533 89.0666 344C108.8 351.2 121.6 354 127.467 352.667C132.4 351.467 132.667 351.067 133.067 345.733C133.6 339.067 130.533 332.533 122.667 323.6C116 316.133 97.8666 300 96 300C95.2 300 94.6666 301.2 94.6666 302.667Z" fill="#0032A1"/>
<path d="M291.067 307.867C272.533 323.333 262.8 336.667 262.667 346.267C262.667 352.133 266.267 353.867 276.533 352.933C284.8 352.267 309.733 344.533 318.933 339.867C328.4 335.067 324.8 332 309.2 332C302.4 332 299.867 331.467 298.267 329.6C295.2 326.267 295.467 323.733 299.333 312.267C301.2 306.8 302.667 302.133 302.667 301.867C302.667 299.733 297.6 302.4 291.067 307.867Z" fill="#0032A1"/>
<path d="M136 327.333C136 330.933 139.467 336.4 145.2 342C148.267 344.8 150.667 347.867 150.667 348.667C150.667 351.467 146.133 354.267 135.6 358C127.867 360.8 125.333 362.267 125.6 363.867C126.4 368.133 135.467 369.467 158.8 369.067C178.533 368.667 181.333 368.4 183.867 366.133C192.133 358.667 181.067 346 153.867 331.867C140.8 325.067 136 323.867 136 327.333Z" fill="#0032A1"/>
<path d="M245.6 331.333C223.867 341.867 212.133 351.333 210.133 360C208.4 367.067 213.733 369.467 233.2 370.267C241.733 370.667 253.067 370.4 258.4 369.6C274.8 367.2 275.6 363.6 260.8 358.667C250.8 355.333 246.667 352.667 246.667 349.333C246.667 348 249.733 343.867 253.333 340C258.267 334.933 260 332 260 329.2C260 327.067 259.467 325.333 258.933 325.333C258.267 325.333 252.267 328 245.6 331.333Z" fill="#0032A1"/>
<path d="M192 357.333V377.333H198H204V357.333V337.333H198H192V357.333Z" fill="#0032A1"/>
</svg>
